<svg width="69" height="82" viewBox="0 0 69 82" fill="none" xmlns="http://www.w3.org/2000/svg">
  <rect width="69" height="82" rx="14" fill="#0d1117"/>
  <path d="M68.5 69.3278C68.5 71.5139 66.7278 73.2861 64.5416 73.2861C62.6686 73.2861 61.07 71.9671 60.5184 70.177C59.0003 65.2496 56.2489 59.8111 52.3994 54.5664C42.7884 41.472 29.9768 34.5417 23.7842 39.0869C17.5915 43.6321 20.3627 57.9319 29.9736 71.0264C30.6518 71.9503 30.0071 73.2861 28.8611 73.2861H11.75C9.54086 73.2861 7.75 71.4953 7.75 69.2861V4C7.75 1.79086 9.54086 0 11.75 0H15.1428C17.0007 0 18.5961 1.28563 19.1747 3.05109C20.7305 7.79868 23.4053 12.9832 27.0811 17.9912C36.692 31.0856 49.5037 38.0159 55.6963 33.4707C61.8888 28.9254 59.1177 14.6256 49.5068 1.53125C49.0448 0.901696 49.4862 0 50.2671 0H64.5C66.7091 0 68.5 1.79086 68.5 4V69.3278Z" fill="#FF8C69"/>
  <path d="M61.75 69.3283C61.75 71.5142 59.978 73.2861 57.7922 73.2861C55.9194 73.2861 54.321 71.9672 53.7695 70.1774C52.2511 65.25 49.499 59.8113 45.6494 54.5664C36.0384 41.4721 23.2268 34.5417 17.0342 39.0869C10.8418 43.6323 13.6129 57.932 23.2236 71.0264C23.9019 71.9505 23.2577 73.2861 22.1114 73.2861H5C2.79086 73.2861 1 71.4953 1 69.2861V4C1 1.79086 2.79086 0 5 0H8.39283C10.2507 0 11.8461 1.28563 12.4247 3.05109C13.9805 7.79868 16.6553 12.9832 20.3311 17.9912C29.942 31.0856 42.7537 38.0159 48.9463 33.4707C55.1388 28.9254 52.3677 14.6256 42.7568 1.53125C42.2948 0.901696 42.7362 0 43.5171 0H57.75C59.9591 0 61.75 1.79086 61.75 4V69.3283Z" fill="#1085EF"/>
</svg>
